Coordinates
version=1
nRows=16
nColumns=33
inDegrees=yes

Units are S.I. units (second, meters, Newtons, ...)
Angles are in degrees.

endheader
time	ground_thorax_rot_x	ground_thorax_rot_y	ground_thorax_rot_z	ground_thorax_tx	ground_thorax_ty	ground_thorax_tz	clav_prot_r	clav_elev_r	scapula_abduction_r	scapula_elevation_r	scapula_upward_rot_r	scapula_winging_r	shoulder_elv_r	plane_of_elev_r	axial_rot_r	elbow_flexion_r	pro_sup_r	wrist_flex_r	wrist_dev_r	clav_prot_l	clav_elev_l	scapula_abduction_l	scapula_elevation_l	scapula_upward_rot_l	scapula_winging_l	shoulder_elv_l	plane_of_elev_l	axial_rot_l	elbow_flexion_l	pro_sup_l	wrist_flex_l	wrist_dev_l
      3.85000000	     37.69247007	      3.40090369	     13.17969942	   -119.66750708	    798.55661808	     -4.08068500	      0.92531150	     40.60012192	     45.00000000	     39.07871014	     16.00027008	  -4072.42795081	  -2099.14493133	     16.64369793	   -179.99999979	   1805.37504206	    -77.54926074	     16.32470850	     10.48652625	     11.18077029	    -45.00000000	    -40.91983905	     45.00000000	    -37.40578769	   3330.10871530	  -1369.56210111	     19.48295723	    -42.79536036	   2165.67984342	     14.03272470	     11.85277237	    -18.96748431
      3.86000000	     37.97083894	      3.65710744	     13.94267353	   -125.44222333	    799.79388887	     -4.72791665	      1.67579659	     40.99069162	     45.00000000	     39.55673808	     14.10665577	  -4072.25682358	  -2099.23077050	     16.68210658	   -179.99999979	   1805.24282840	    -75.18822589	     16.55308469	     10.35220833	     10.94400713	    -45.00000000	    -39.85982960	     45.00000000	    -39.50352835	   3330.35695780	  -1369.55246185	     19.63270207	    -43.27070883	   2165.74586354	     14.05180293	     11.90107033	    -19.02887334
      3.87000000	     38.23449822	      3.92563283	     14.66670434	   -131.28290974	    801.16594282	     -5.35000035	      2.22196419	     41.45877276	     45.00000000	     40.05447867	     12.43929929	  -4072.16815526	  -2099.23288065	     16.68083628	   -179.99999979	   1805.16686886	    -73.20239162	     16.72091187	     10.24398139	     10.89797605	    -45.00000000	    -38.76984788	     45.00000000	    -41.53306526	   3330.48939710	  -1369.33489515	     19.59713331	    -43.95088778	   2165.94967173	     14.22322211	     11.85118189	    -19.14241736
      3.88000000	     38.45266839	      4.24010149	     15.43192405	   -137.16692802	    802.68077642	     -5.93711976	      2.67924026	     41.99649563	     45.00000000	     40.55185204	     10.80790662	  -4072.05763379	  -2099.17128437	     16.64140580	   -179.99999979	   1805.13301119	    -71.47671014	     16.85407853	     10.14870575	     10.79344523	    -45.00000000	    -37.70155195	     45.00000000	    -43.60081953	   3330.57495696	  -1368.98974784	     19.43765348	    -44.64565052	   2166.20983873	     14.50586241	     11.74781784	    -19.29436788
      3.89000000	     38.74276589	      4.43881510	     15.91317166	   -143.06964371	    804.34165590	     -6.48616281	      2.58679265	     42.53539585	     45.00000000	     41.08150685	      9.82840273	  -4072.16693691	  -2099.01085612	     16.55012806	   -179.99999979	   1805.12212470	    -70.16852606	     16.92256581	     10.10992987	     10.86317858	    -45.00000000	    -36.80398589	     45.00000000	    -45.00000000	   3330.45493554	  -1368.49437027	     18.86378658	    -45.90226998	   2166.60431078	     14.97927424	     11.54252333	    -19.51924180
      3.90000000	     39.09481327	      4.01428138	     15.37815556	   -148.95185576	    806.14466312	     -6.99834430	      2.42065043	     42.38670090	     45.00000000	     41.52461421	      9.89465568	  -4072.64500026	  -2099.06075497	     16.56526792	   -179.99999979	   1804.97067850	    -69.20505446	     16.87625475	     10.10997897	     11.24515974	    -45.00000000	    -36.45310990	     45.00000000	    -45.00000000	   3330.70666384	  -1368.31736695	     18.64715381	    -48.34229862	   2167.07412135	     15.76709584	     11.41165016	    -19.77819530
      3.91000000	     39.09080809	      4.10296391	     15.92889685	   -154.81126997	    808.09692932	     -7.47809630	      3.19141416	     42.95162486	     45.00000000	     41.63823116	      7.94940909	  -4072.14626613	  -2099.00121916	     16.61668383	   -179.99999979	   1805.15666655	    -67.88289303	     17.17855412	     10.00425968	     10.68887554	    -45.00000000	    -36.05590688	     45.00000000	    -45.00000000	   3331.45815871	  -1368.42794298	     18.22322079	    -48.52885744	   2167.02507402	     16.37112404	     11.44794560	    -19.90566328
      3.92000000	     39.22521222	      4.01807872	     16.06722220	   -160.59542230	    810.18759070	     -7.92507739	      3.76208421	     42.93234137	     45.00000000	     41.90597054	      6.88318693	  -4072.08887478	  -2098.97280547	     16.59681923	   -179.99999979	   1805.06884299	    -66.72816829	     17.33184575	      9.90317914	     10.68377021	    -45.00000000	    -35.65904300	     45.00000000	    -45.00000000	   3332.04381436	  -1368.40936264	     17.89859116	    -49.80539636	   2167.19967227	     17.16986721	     11.41403424	    -20.12660072
      3.93000000	     39.37742610	      3.94496556	     16.15167541	   -166.28942006	    812.41236135	     -8.34209293	      4.12253693	     43.25394603	     45.00000000	     42.21881381	      5.93523966	  -4072.08668244	  -2098.96237359	     16.59449105	   -179.99999979	   1805.11848352	    -65.70613925	     17.45288831	      9.85555665	     10.65492131	    -45.00000000	    -35.35458840	     45.00000000	    -45.00000000	   3332.60111401	  -1368.36943394	     17.57375687	    -51.17205350	   2167.38844412	     18.11961838	     11.30453818	    -20.32574793
      3.94000000	     39.56142686	      3.84883516	     16.14463575	   -171.87292050	    814.76013538	     -8.73119235	      4.14336990	     43.43787335	     45.00000000	     42.56821067	      5.38168307	  -4072.23744440	  -2098.88415052	     16.54553604	   -179.99999979	   1805.10079514	    -64.86456684	     17.57514061	      9.81995870	     10.65356081	    -45.00000000	    -34.88682237	     45.00000000	    -45.00000000	   3332.89221103	  -1368.10134268	     17.08165968	    -52.63345115	   2167.66940817	     19.15400527	     11.04246139	    -20.52834136
      3.95000000	     39.72994874	      3.69594098	     16.08917925	   -177.32104669	    817.21273383	     -9.09364120	      4.43447810	     43.70580710	     45.00000000	     42.85138755	      4.60784269	  -4072.21304890	  -2098.86393865	     16.56339960	   -179.99999979	   1805.16466412	    -63.83083299	     17.72040309	      9.75552280	     10.62423661	    -45.00000000	    -34.67578001	     45.00000000	    -45.00000000	   3333.38670695	  -1368.05289826	     16.80302287	    -53.68585719	   2167.92144524	     20.31131377	     10.91639625	    -20.74501421
      3.96000000	     39.87500879	      3.59033200	     16.08540451	   -182.61568140	    819.75299003	     -9.43051233	      4.77829736	     43.91458069	     45.00000000	     43.14105094	      3.81495523	  -4072.24713501	  -2098.88921884	     16.55665985	   -179.99999979	   1805.12367017	    -62.87593458	     17.85590876	      9.65778195	     10.59804964	    -45.00000000	    -34.38060219	     45.00000000	    -45.00000000	   3333.92876233	  -1367.94888768	     16.55752828	    -54.85895364	   2168.14658408	     21.57123609	     10.81753662	    -20.96719847
      3.97000000	     40.06371996	      3.52247404	     16.06803997	   -187.73313815	    822.36122741	     -9.74165137	      4.86607285	     44.13380190	     45.00000000	     43.47501432	      3.29230462	  -4072.34074632	  -2098.81210520	     16.55205234	   -179.99999979	   1805.16019781	    -62.15371632	     17.97306045	      9.60695499	     10.60937346	    -45.00000000	    -34.09841540	     45.00000000	    -45.00000000	   3334.32611702	  -1367.77251944	     16.16080928	    -56.10889675	   2168.41924571	     22.80942133	     10.56788714	    -21.14559397
      3.98000000	     40.28550507	      3.26203187	     15.62993575	   -192.64297780	    825.01622992	    -10.02615650	      4.36061897	     43.99128764	     45.00000000	     43.80444836	      4.44263541	  -4072.97838330	  -2098.37885489	     16.51325203	   -179.99999979	   1805.53041397	    -62.07012220	     17.84295062	      9.85071059	     10.92400503	    -45.00000000	    -33.93156530	     45.00000000	    -45.00000000	   3335.03647267	  -1367.68083182	     16.29441962	    -58.82404655	   2168.87083617	     23.91879883	     10.04601581	    -21.24452676
      3.99000000	     40.35270409	      3.42569482	     15.83197684	   -197.33782904	    827.70890257	    -10.28431954	      4.80227504	     44.49629751	     44.49254190	     44.07085014	      2.43393901	  -4072.29868304	  -2098.81310775	     16.58228039	   -179.99999979	   1805.14804487	    -61.53045839	     18.15144713	      9.53604520	     10.71573632	    -45.00000000	    -33.62675287	     45.00000000	    -45.00000000	   3334.96440122	  -1367.35585327	     15.51964558	    -58.57503159	   2168.79068009	     24.96371339	     10.14764201	    -21.41603447
      4.00000000	     40.30047110	      3.99196882	     16.47167155	   -201.79116525	    830.42296474	    -10.51488599	      5.41553786	     44.71621013	     43.37059302	     44.37672284	      0.13019609	  -4070.97421179	  -2099.25492747	     16.70372629	   -179.99999979	   1805.05323881	    -61.56190971	     18.44797610	      9.28734313	     10.78233891	    -45.00000000	    -33.68077753	     45.00000000	    -45.00000000	   3335.87711922	  -1367.25595461	     15.13562927	    -59.38157981	   2169.08740336	     26.25758018	     10.29928057	    -21.72610274
